<?xml version="1.0" encoding="utf-8"?>
<!-- Generator: Adobe Illustrator 16.0.0, SVG Export Plug-In . SVG Version: 6.00 Build 0)  -->
<!DOCTYPE svg PUBLIC "-//W3C//DTD SVG 1.1//EN" "http://www.w3.org/Graphics/SVG/1.1/DTD/svg11.dtd">
<svg version="1.1" id="Layer_1" xmlns="http://www.w3.org/2000/svg" xmlns:xlink="http://www.w3.org/1999/xlink" x="0px" y="0px"
	 width="180px" height="201px" viewBox="0 0 180 201" enable-background="new 0 0 180 201"
	 xml:space="preserve">
<g id="AhtSab_1_">
	<g>
		<g>
			<path fill="none" stroke="#000000" stroke-width="2" stroke-linecap="round" stroke-linejoin="round" stroke-miterlimit="10" d="
				M178,82c-0.834-7.167-1.4609-14.3652-2.5586-21.4912c-1.0605-6.875-2.082-13.833-4.0732-20.4688
				c-2.5459-8.4805-7.9951-14.8926-16.3604-18.5576c-10.8652-4.7607-21.6992-9.5957-32.4824-14.5381
				c-1.6816-0.7705-3.2207-2.0986-4.4844-3.4814c-2.6191-2.8672-6.3281-2.7236-8.9688-1.7646
				c-7.2422,2.6309-14.6006,3.2188-22.0659,2.71c-5.1992-0.3555-10.353-1.502-15.5015-2.4346
				c-3.3384-0.6045-5.9805-0.6357-9.1685,1.8135c-4.166,3.2021-9.5127,4.8594-14.3345,7.2168
				c-9.1738,4.4854-18.5605,8.5977-27.4307,13.6221c-7.0923,4.0176-10.9106,11.0283-12.5,18.8887
				C5.7915,54.791,3.9287,66.1553,2.0605,77.5098C1.689,79.7686,1.3169,82.4902,4.501,83.498
				c9.4976,3.0059,19.0127,5.96,28.4917,9.0244c3.4224,1.1064,4.8979,0.124,4.5767-3.5283C37.5439,88.707,38.5,88.333,39,88"/>
			
				<path fill-rule="evenodd" clip-rule="evenodd" fill="none" stroke="#000000" stroke-width="2" stroke-linecap="round" stroke-linejoin="round" stroke-miterlimit="10" d="
				M141,84.5c-0.5,17.5-1.584,35.0078-1.335,52.498c0.2471,17.3438,1.8389,34.668,2.8262,52.002
				c0.0664,1.1631,0.0088,2.333,0.0088,3.5"/>
			
				<path fill-rule="evenodd" clip-rule="evenodd" fill="none" stroke="#000000" stroke-width="2" stroke-linecap="round" stroke-linejoin="round" stroke-miterlimit="10" d="
				M39,84.5c2.3779,17.2793,3.1323,34.582,1.5884,52.0078c-0.6899,7.7871-0.2593,15.666-0.6274,23.4902
				C39.4507,170.8389,38.6665,181.667,38,192.5"/>
			
				<path fill-rule="evenodd" clip-rule="evenodd" fill="none" stroke="#000000" stroke-width="2" stroke-linecap="round" stroke-linejoin="round" stroke-miterlimit="10" d="
				M177,83c-8.834,3.167-17.5781,6.6191-26.5322,9.3955c-5.6396,1.749-6.8291,0.6533-8.9678-5.3955"/>
		</g>
	</g>
</g>
</svg>
